<svg width="20" height="20" viewBox="0 0 20 20" fill="none" xmlns="http://www.w3.org/2000/svg">
<path d="M17.0834 14.1072V8.33335C17.0834 5.19066 17.0834 3.61931 16.1071 2.643C15.1308 1.66669 13.5594 1.66669 10.4167 1.66669H9.58342C6.44072 1.66669 4.86937 1.66669 3.89306 2.643C2.91675 3.61931 2.91675 5.19066 2.91675 8.33335V16.25" stroke="black" stroke-opacity="0.8" stroke-linecap="round"/>
<path d="M17.0834 14.1667H5.00008C3.84949 14.1667 2.91675 15.0994 2.91675 16.25C2.91675 17.4006 3.84949 18.3334 5.00008 18.3334H17.0834" stroke="black" stroke-opacity="0.8" stroke-linecap="round"/>
<path d="M17.0833 18.3334C15.9327 18.3334 15 17.4006 15 16.25C15 15.0994 15.9327 14.1667 17.0833 14.1667" stroke="black" stroke-opacity="0.8" stroke-linecap="round"/>
<path d="M12.5 5.83337L7.5 5.83337" stroke="black" stroke-opacity="0.8" stroke-linecap="round" stroke-linejoin="round"/>
<path d="M10 9.16669L7.5 9.16669" stroke="black" stroke-opacity="0.8" stroke-linecap="round" stroke-linejoin="round"/>
</svg>
