<svg width="20" height="20" viewBox="0 0 20 20" fill="none" xmlns="http://www.w3.org/2000/svg">
<path d="M17.5 17.5C17.2737 17.6696 17.024 17.8173 16.7551 17.9394C15.8882 18.3333 14.743 18.3333 12.4526 18.3333H7.54736C5.25695 18.3333 4.11175 18.3333 3.24485 17.9394C2.97603 17.8173 2.72632 17.6696 2.5 17.5" stroke="black" stroke-opacity="0.8" stroke-linecap="round"/>
<path d="M1.66675 8.33335C1.66675 5.38545 1.66675 3.9115 2.54408 2.92744C2.68441 2.77004 2.83906 2.62448 3.00629 2.49241C4.05186 1.66669 5.61793 1.66669 8.75008 1.66669H11.2501C14.3822 1.66669 15.9483 1.66669 16.9939 2.49241C17.1611 2.62448 17.3158 2.77004 17.4561 2.92744C18.3334 3.9115 18.3334 5.38545 18.3334 8.33335C18.3334 11.2813 18.3334 12.7552 17.4561 13.7393C17.3158 13.8967 17.1611 14.0422 16.9939 14.1743C15.9483 15 14.3822 15 11.2501 15H8.75008C5.61793 15 4.05186 15 3.00629 14.1743C2.83906 14.0422 2.68441 13.8967 2.54408 13.7393C1.66675 12.7552 1.66675 11.2813 1.66675 8.33335Z" stroke="black" stroke-opacity="0.8" stroke-linecap="round" stroke-linejoin="round"/>
<path d="M15.4167 8.33337H15.4093" stroke="black" stroke-opacity="0.8" stroke-linecap="round" stroke-linejoin="round"/>
<path d="M4.5835 8.33337H4.57601" stroke="black" stroke-opacity="0.8" stroke-linecap="round" stroke-linejoin="round"/>
<path d="M12.1258 8.33333C12.1258 9.48393 11.1931 10.4167 10.0425 10.4167C8.89189 10.4167 7.95915 9.48393 7.95915 8.33333C7.95915 7.18274 8.89189 6.25 10.0425 6.25C11.1931 6.25 12.1258 7.18274 12.1258 8.33333Z" stroke="black" stroke-opacity="0.8"/>
</svg>
