<svg width="20" height="20" viewBox="0 0 20 20" fill="none" xmlns="http://www.w3.org/2000/svg">
<path d="M1.66675 15C1.66675 13.7163 1.66675 13.0744 1.95569 12.6029C2.11737 12.3391 2.33919 12.1173 2.60303 11.9556C3.07453 11.6667 3.71638 11.6667 5.00008 11.6667C6.28378 11.6667 6.92563 11.6667 7.39714 11.9556C7.66097 12.1173 7.8828 12.3391 8.04447 12.6029C8.33341 13.0744 8.33341 13.7163 8.33341 15C8.33341 16.2837 8.33341 16.9255 8.04447 17.397C7.8828 17.6609 7.66097 17.8827 7.39714 18.0444C6.92563 18.3333 6.28378 18.3333 5.00008 18.3333C3.71638 18.3333 3.07453 18.3333 2.60303 18.0444C2.33919 17.8827 2.11737 17.6609 1.95569 17.397C1.66675 16.9255 1.66675 16.2837 1.66675 15Z" stroke="black" stroke-opacity="0.8"/>
<path d="M11.6667 15C11.6667 13.7163 11.6667 13.0744 11.9557 12.6029C12.1174 12.3391 12.3392 12.1173 12.603 11.9556C13.0745 11.6667 13.7164 11.6667 15.0001 11.6667C16.2838 11.6667 16.9256 11.6667 17.3971 11.9556C17.661 12.1173 17.8828 12.3391 18.0445 12.6029C18.3334 13.0744 18.3334 13.7163 18.3334 15C18.3334 16.2837 18.3334 16.9255 18.0445 17.397C17.8828 17.6609 17.661 17.8827 17.3971 18.0444C16.9256 18.3333 16.2838 18.3333 15.0001 18.3333C13.7164 18.3333 13.0745 18.3333 12.603 18.0444C12.3392 17.8827 12.1174 17.6609 11.9557 17.397C11.6667 16.9255 11.6667 16.2837 11.6667 15Z" stroke="black" stroke-opacity="0.8"/>
<path d="M1.66675 4.99999C1.66675 3.71629 1.66675 3.07444 1.95569 2.60293C2.11737 2.3391 2.33919 2.11728 2.60303 1.9556C3.07453 1.66666 3.71638 1.66666 5.00008 1.66666C6.28378 1.66666 6.92563 1.66666 7.39714 1.9556C7.66097 2.11728 7.8828 2.3391 8.04447 2.60293C8.33341 3.07444 8.33341 3.71629 8.33341 4.99999C8.33341 6.28369 8.33341 6.92554 8.04447 7.39705C7.8828 7.66088 7.66097 7.8827 7.39714 8.04438C6.92563 8.33332 6.28378 8.33332 5.00008 8.33332C3.71638 8.33332 3.07453 8.33332 2.60303 8.04438C2.33919 7.8827 2.11737 7.66088 1.95569 7.39705C1.66675 6.92554 1.66675 6.28369 1.66675 4.99999Z" stroke="black" stroke-opacity="0.8"/>
<path d="M11.6667 4.99999C11.6667 3.71629 11.6667 3.07444 11.9557 2.60293C12.1174 2.3391 12.3392 2.11728 12.603 1.9556C13.0745 1.66666 13.7164 1.66666 15.0001 1.66666C16.2838 1.66666 16.9256 1.66666 17.3971 1.9556C17.661 2.11728 17.8828 2.3391 18.0445 2.60293C18.3334 3.07444 18.3334 3.71629 18.3334 4.99999C18.3334 6.28369 18.3334 6.92554 18.0445 7.39705C17.8828 7.66088 17.661 7.8827 17.3971 8.04438C16.9256 8.33332 16.2838 8.33332 15.0001 8.33332C13.7164 8.33332 13.0745 8.33332 12.603 8.04438C12.3392 7.8827 12.1174 7.66088 11.9557 7.39705C11.6667 6.92554 11.6667 6.28369 11.6667 4.99999Z" stroke="black" stroke-opacity="0.8"/>
</svg>
