<svg width="20" height="20" viewBox="0 0 20 20" fill="none" xmlns="http://www.w3.org/2000/svg">
<path d="M8.3335 11.0242C8.45152 11.2175 8.59156 11.4004 8.75363 11.5691C9.75989 12.6163 11.2936 12.78 12.4648 12.0602C12.6818 11.9268 12.8864 11.7631 13.0728 11.5691L15.7723 8.75956C16.965 7.51824 16.965 5.50567 15.7723 4.26436C14.5796 3.02304 12.6458 3.02305 11.4531 4.26436L10.8585 4.88319" stroke="black" stroke-opacity="0.8" stroke-linecap="round"/>
<path d="M9.14208 15.1166L8.54726 15.7357C7.35454 16.977 5.42076 16.977 4.22804 15.7357C3.03532 14.4944 3.03532 12.4818 4.22804 11.2405L6.92755 8.43099C8.12027 7.18967 10.0541 7.18967 11.2468 8.43098C11.4088 8.59961 11.5488 8.78247 11.6668 8.9757" stroke="black" stroke-opacity="0.8" stroke-linecap="round"/>
</svg>
