<svg width="20" height="20" viewBox="0 0 20 20" fill="none" xmlns="http://www.w3.org/2000/svg">
<path d="M4.3168 12.747C3.26883 13.3613 0.521092 14.6155 2.19465 16.185C3.01216 16.9517 3.92267 17.5 5.06739 17.5H11.5994C12.7442 17.5 13.6547 16.9517 14.4722 16.185C16.1457 14.6155 13.398 13.3613 12.35 12.747C9.89253 11.3066 6.77429 11.3066 4.3168 12.747Z" stroke="black" stroke-opacity="0.8" stroke-linecap="round" stroke-linejoin="round"/>
<path d="M11.6667 5.83333C11.6667 7.67428 10.1743 9.16667 8.33333 9.16667C6.49238 9.16667 5 7.67428 5 5.83333C5 3.99238 6.49238 2.5 8.33333 2.5C10.1743 2.5 11.6667 3.99238 11.6667 5.83333Z" stroke="black" stroke-opacity="0.8"/>
<path d="M16.2501 3.33331V7.49998M18.3334 5.41665L14.1667 5.41665" stroke="black" stroke-opacity="0.8" stroke-linecap="round" stroke-linejoin="round"/>
</svg>
